{"glyphs":{"0":{"ha":772,"x_min":0,"x_max":0,"o":"m 386 1000 b 53 492 104 1000 53 710 b 386 -17 53 274 104 -17 b 719 492 668 -17 719 274 b 386 1000 719 710 668 1000 z m 386 908 b 619 492 600 908 619 647 b 386 75 619 336 600 75 b 153 492 172 75 153 336 b 386 908 153 647 172 908 z "},"1":{"ha":772,"x_min":0,"x_max":0,"o":"m 483 983 l 394 983 l 144 778 l 207 703 l 383 858 l 383 0 l 483 0 z "},"2":{"ha":772,"x_min":0,"x_max":0,"o":"m 692 92 l 175 92 l 485 399 b 683 744 583 496 683 594 b 386 1000 683 914 544 1000 b 92 765 235 1000 119 911 l 197 754 b 393 908 218 849 294 908 b 583 736 499 908 583 844 b 458 514 583 646 518 575 l 67 115 l 67 0 l 692 0 z "},"3":{"ha":772,"x_min":0,"x_max":0,"o":"m 283 469 l 326 469 b 576 269 456 469 576 418 b 371 75 576 154 483 75 b 158 214 253 75 192 121 l 53 182 b 363 -17 107 43 218 -17 b 676 267 533 -17 676 85 b 488 517 676 390 600 493 l 483 519 b 650 744 574 549 650 638 b 365 1000 650 908 519 1000 b 93 844 246 1000 151 950 l 181 800 b 368 908 221 869 286 908 b 550 742 482 908 550 847 b 335 561 550 611 451 561 l 283 561 z "},"4":{"ha":772,"x_min":0,"x_max":0,"o":"m 578 983 l 450 983 l 53 347 l 53 233 l 478 233 l 478 0 l 578 0 l 578 233 l 719 233 l 719 325 l 578 325 z m 478 325 l 136 325 l 475 883 l 478 883 z "},"5":{"ha":772,"x_min":0,"x_max":0,"o":"m 646 983 l 144 983 l 135 474 b 339 528 197 507 268 528 b 581 294 479 528 581 433 b 358 75 581 172 483 75 b 165 201 272 75 203 125 l 67 158 b 350 -17 119 44 226 -17 b 681 304 539 -17 681 114 b 369 619 681 485 554 619 b 238 596 325 619 279 613 l 243 892 l 646 892 z "},"6":{"ha":772,"x_min":0,"x_max":0,"o":"m 535 983 l 417 983 l 151 551 b 67 288 103 472 67 396 b 386 -17 67 107 201 -17 b 706 288 571 -17 706 107 b 406 592 706 464 576 592 b 269 558 361 592 301 581 l 267 561 z m 167 288 b 386 500 167 413 257 500 b 606 288 515 500 606 413 b 386 75 606 163 515 75 b 167 288 257 75 167 163 z "},"7":{"ha":772,"x_min":0,"x_max":0,"o":"m 658 983 l 75 983 l 75 892 l 554 892 l 150 0 l 263 0 l 658 892 z "},"8":{"ha":772,"x_min":0,"x_max":0,"o":"m 258 521 b 75 263 149 492 75 392 b 386 -17 75 92 221 -17 b 697 263 551 -17 697 92 b 514 521 697 392 624 492 l 514 524 b 661 743 600 553 661 643 b 386 1000 661 900 533 1000 b 111 743 239 1000 111 900 b 258 524 111 643 172 553 z m 561 735 b 386 561 561 633 485 561 b 211 735 288 561 211 633 b 386 908 211 836 288 908 b 561 735 485 908 561 836 z m 597 276 b 386 75 597 161 514 75 b 175 276 258 75 175 161 b 386 478 175 392 258 478 b 597 276 514 478 597 392 z "},"9":{"ha":772,"x_min":0,"x_max":0,"o":"m 238 0 l 356 0 l 621 432 b 706 696 669 511 706 588 b 386 1000 706 876 571 1000 b 67 696 201 1000 67 876 b 367 392 67 519 196 392 b 503 425 411 392 471 403 l 506 422 z m 606 696 b 386 483 606 571 515 483 b 167 696 257 483 167 571 b 386 908 167 821 257 908 b 606 696 515 908 606 821 z "}," ":{"ha":386,"x_min":0,"x_max":0,"o":""},"!":{"ha":386,"x_min":0,"x_max":0,"o":"m 243 983 l 143 983 l 143 267 l 243 267 z m 268 67 b 193 142 268 106 238 142 b 118 67 149 142 118 106 b 193 -8 118 28 149 -8 b 268 67 238 -8 268 28 z "},"\"":{"ha":721,"x_min":0,"x_max":0,"o":"m 218 657 l 301 657 l 301 983 l 218 983 z m 419 657 l 503 657 l 503 983 l 419 983 z "},"#":{"ha":772,"x_min":0,"x_max":0,"o":"m 149 0 l 233 0 l 275 297 l 460 297 l 418 0 l 503 0 l 544 297 l 688 297 l 688 381 l 556 381 l 586 606 l 724 606 l 724 689 l 599 689 l 639 983 l 554 983 l 514 689 l 329 689 l 369 983 l 285 983 l 244 689 l 82 689 l 82 606 l 232 606 l 201 381 l 49 381 l 49 297 l 190 297 z m 317 606 l 501 606 l 471 381 l 286 381 z "},"$":{"ha":772,"x_min":0,"x_max":0,"o":"m 353 563 b 185 735 261 596 185 640 b 353 913 185 831 254 906 z m 419 436 b 601 247 525 403 603 342 b 419 69 600 110 492 69 z m 353 68 b 143 188 294 67 204 111 l 60 128 b 353 -25 115 49 224 -18 l 353 -117 l 419 -117 l 419 -22 b 701 247 579 -12 701 93 b 419 543 701 428 556 494 l 419 914 b 599 821 486 915 560 886 l 676 888 b 419 1006 624 949 551 1006 l 419 1100 l 353 1100 l 353 1003 b 85 732 217 993 85 893 b 353 456 85 563 226 494 z "},"%":{"ha":1157,"x_min":0,"x_max":0,"o":"m 542 757 b 297 1000 542 893 435 1000 b 53 757 160 1000 53 893 b 297 514 53 621 160 514 b 542 757 435 514 542 621 z m 458 757 b 297 597 458 665 385 597 b 136 757 210 597 136 665 b 297 917 136 849 210 917 b 458 757 385 917 458 849 z m 1104 226 b 860 469 1104 363 997 469 b 615 226 722 469 615 363 b 860 -17 615 90 722 -17 b 1104 226 997 -17 1104 90 z m 1021 226 b 860 67 1021 135 947 67 b 699 226 772 67 699 135 b 860 386 699 318 772 386 b 1021 226 947 386 1021 318 z m 926 989 l 856 1026 l 229 -6 l 301 -43 z "},"&":{"ha":978,"x_min":0,"x_max":0,"o":"m 915 532 l 803 532 l 668 299 l 442 532 b 658 788 543 585 658 658 b 421 1008 658 931 551 1008 b 175 776 282 1008 175 924 b 290 546 175 686 232 608 b 67 256 172 490 67 400 b 375 -25 67 79 211 -25 b 675 144 508 -25 594 39 l 814 0 l 956 0 l 735 228 z m 558 788 b 378 596 558 686 453 639 b 275 772 346 624 275 706 b 422 917 275 861 340 917 b 558 788 497 917 558 865 z m 613 211 b 376 67 549 131 483 67 b 175 254 269 67 175 143 b 353 483 175 356 224 411 z "},"’":{"ha":361,"x_min":0,"x_max":0,"o":"m 283 983 l 171 983 l 78 657 l 171 657 z "},"(":{"ha":361,"x_min":0,"x_max":0,"o":"m 276 1022 b 75 400 144 842 75 614 b 271 -222 75 175 147 -50 l 344 -167 b 167 400 229 25 167 171 b 350 975 167 629 232 785 z "},")":{"ha":361,"x_min":0,"x_max":0,"o":"m 85 -222 b 286 400 217 -42 286 186 b 90 1022 286 625 214 850 l 17 967 b 194 400 132 775 194 629 b 11 -175 194 171 129 15 z "},"*":{"ha":617,"x_min":0,"x_max":0,"o":"m 350 983 l 267 983 l 267 785 l 72 847 l 43 769 l 239 707 l 114 539 l 181 489 l 308 661 l 436 489 l 503 539 l 378 707 l 574 769 l 544 847 l 350 785 z "},"+":{"ha":925,"x_min":0,"x_max":0,"o":"m 504 775 l 421 775 l 421 463 l 108 463 l 108 379 l 421 379 l 421 67 l 504 67 l 504 379 l 817 379 l 817 463 l 504 463 z "},",":{"ha":386,"x_min":0,"x_max":0,"o":"m 296 132 l 183 132 l 90 -194 l 183 -194 z "},"-":{"ha":463,"x_min":0,"x_max":0,"o":"m 410 379 l 53 379 l 53 288 l 410 288 z "},".":{"ha":386,"x_min":0,"x_max":0,"o":"m 268 67 b 193 142 268 106 238 142 b 118 67 149 142 118 106 b 193 -8 118 28 149 -8 b 268 67 238 -8 268 28 z "},"/":{"ha":514,"x_min":0,"x_max":0,"o":"m 507 981 l 428 1008 l 7 1 l 88 -25 z "},":":{"ha":386,"x_min":0,"x_max":0,"o":"m 268 582 b 193 657 268 621 238 657 b 118 582 149 657 118 621 b 193 507 118 543 149 507 b 268 582 238 507 268 543 z m 268 67 b 193 142 268 106 238 142 b 118 67 149 142 118 106 b 193 -8 118 28 149 -8 b 268 67 238 -8 268 28 z "},";":{"ha":386,"x_min":0,"x_max":0,"o":"m 296 132 l 183 132 l 90 -194 l 183 -194 z m 281 582 b 206 657 281 621 250 657 b 131 582 161 657 131 621 b 206 507 131 543 161 507 b 281 582 250 507 281 543 z "},"<":{"ha":925,"x_min":0,"x_max":0,"o":"m 817 783 l 108 453 l 108 389 l 817 58 l 817 142 l 221 421 l 817 700 z "},"=":{"ha":925,"x_min":0,"x_max":0,"o":"m 108 567 l 108 483 l 817 483 l 817 567 z m 108 358 l 108 275 l 817 275 l 817 358 z "},">":{"ha":925,"x_min":0,"x_max":0,"o":"m 108 700 l 704 421 l 108 142 l 108 58 l 817 389 l 817 453 l 108 783 z "},"?":{"ha":669,"x_min":0,"x_max":0,"o":"m 383 338 b 608 757 383 540 608 521 b 344 1000 608 914 493 1000 b 65 769 201 1000 86 915 l 169 757 b 346 908 186 847 253 908 b 508 749 442 908 508 843 b 283 382 508 585 286 535 l 283 267 l 383 267 z m 417 67 b 342 142 417 106 386 142 b 267 67 297 142 267 106 b 342 -8 267 28 297 -8 b 417 67 386 -8 417 28 z "},"@":{"ha":1111,"x_min":0,"x_max":0,"o":"m 699 568 b 483 274 699 454 604 274 b 353 407 408 274 353 329 b 586 707 353 536 451 701 b 699 568 644 707 699 647 z m 747 676 l 744 676 b 586 790 715 761 654 790 b 261 399 390 790 261 590 b 458 190 261 275 340 190 b 632 272 540 190 589 228 l 635 272 b 732 190 642 215 676 190 b 1051 582 857 190 1051 342 b 579 1008 1051 832 836 1008 b 60 492 296 1008 60 782 b 579 -25 60 201 296 -25 b 1018 218 760 -25 929 65 l 931 218 b 579 50 856 113 717 50 b 143 492 340 50 143 261 b 579 933 143 722 340 933 b 968 576 774 933 968 786 b 758 274 968 422 854 274 b 726 301 739 274 726 288 b 739 372 726 322 732 349 l 856 764 l 778 764 z "},"A":{"ha":953,"x_min":0,"x_max":0,"o":"m 225 258 l 728 258 l 836 0 l 953 0 l 525 983 l 428 983 l 0 0 l 117 0 z m 476 867 l 689 350 l 263 350 z "},"B":{"ha":875,"x_min":0,"x_max":0,"o":"m 133 0 l 433 0 b 792 272 750 0 792 208 b 569 518 792 415 707 507 l 569 521 b 743 736 679 546 743 629 b 426 983 743 922 589 983 l 133 983 z m 233 892 l 425 892 b 635 725 614 892 635 765 b 435 553 635 599 531 553 l 233 553 z m 233 469 l 438 469 b 683 278 597 469 683 407 b 425 92 683 149 569 92 l 233 92 z "},"C":{"ha":978,"x_min":0,"x_max":0,"o":"m 861 214 b 579 67 788 100 682 67 b 175 492 326 67 175 265 b 579 917 175 718 326 917 b 832 788 683 917 793 851 l 919 853 b 579 1008 833 963 701 1008 b 67 492 286 1008 67 790 b 579 -25 67 193 286 -25 b 943 156 742 -25 878 54 z "},"D":{"ha":1029,"x_min":0,"x_max":0,"o":"m 119 0 l 446 0 b 963 492 692 0 963 164 b 446 983 963 819 692 983 l 119 983 z m 219 892 l 414 892 b 854 492 714 892 854 694 b 414 92 854 289 714 92 l 219 92 z "},"E":{"ha":824,"x_min":0,"x_max":0,"o":"m 233 465 l 710 465 l 710 557 l 233 557 l 233 892 l 743 892 l 743 983 l 133 983 l 133 0 l 760 0 l 760 92 l 233 92 z "},"F":{"ha":772,"x_min":0,"x_max":0,"o":"m 233 465 l 692 465 l 692 557 l 233 557 l 233 892 l 726 892 l 726 983 l 133 983 l 133 0 l 233 0 z "},"G":{"ha":1081,"x_min":0,"x_max":0,"o":"m 935 876 b 579 1008 847 964 735 1008 b 67 492 286 1008 67 790 b 579 -25 67 193 286 -25 b 951 75 699 -25 842 10 l 951 557 l 617 557 l 617 465 l 851 465 l 851 136 b 579 67 778 94 681 67 b 175 492 326 67 175 265 b 579 917 175 718 326 917 b 860 803 700 917 793 874 z "},"H":{"ha":1003,"x_min":0,"x_max":0,"o":"m 133 0 l 233 0 l 233 465 l 769 465 l 769 0 l 869 0 l 869 983 l 769 983 l 769 557 l 233 557 l 233 983 l 133 983 z "},"I":{"ha":367,"x_min":0,"x_max":0,"o":"m 233 983 l 133 983 l 133 0 l 233 0 z "},"J":{"ha":669,"x_min":0,"x_max":0,"o":"m 19 181 b 274 -25 42 46 139 -25 b 550 269 485 -25 550 138 l 550 983 l 450 983 l 450 311 b 276 67 450 190 422 67 b 121 201 189 67 139 119 z "},"K":{"ha":875,"x_min":0,"x_max":0,"o":"m 233 983 l 133 983 l 133 0 l 233 0 l 233 507 l 250 507 l 733 0 l 881 0 l 357 538 l 853 983 l 710 983 l 247 557 l 233 557 z "},"L":{"ha":694,"x_min":0,"x_max":0,"o":"m 233 983 l 133 983 l 133 0 l 692 0 l 692 92 l 233 92 z "},"M":{"ha":1236,"x_min":0,"x_max":0,"o":"m 286 983 l 133 983 l 133 0 l 233 0 l 233 850 l 236 850 l 592 0 l 644 0 l 1000 850 l 1003 850 l 1003 0 l 1103 0 l 1103 983 l 950 983 l 618 183 z "},"N":{"ha":1081,"x_min":0,"x_max":0,"o":"m 258 983 l 133 983 l 133 0 l 233 0 l 233 842 l 236 842 l 822 0 l 947 0 l 947 983 l 847 983 l 847 150 l 844 150 z "},"O":{"ha":1158,"x_min":0,"x_max":0,"o":"m 1092 492 b 579 1008 1092 790 872 1008 b 67 492 286 1008 67 790 b 579 -25 67 193 286 -25 b 1092 492 872 -25 1092 193 z m 983 492 b 579 67 983 265 832 67 b 175 492 326 67 175 265 b 579 917 175 718 326 917 b 983 492 832 917 983 718 z "},"P":{"ha":797,"x_min":0,"x_max":0,"o":"m 133 0 l 233 0 l 233 457 l 419 457 b 743 721 619 457 743 544 b 419 983 743 897 619 983 l 133 983 z m 233 892 l 394 892 b 635 721 574 892 635 815 b 394 549 635 626 574 549 l 233 549 z "},"Q":{"ha":1158,"x_min":0,"x_max":0,"o":"m 175 504 b 564 917 175 722 321 917 b 951 504 806 917 951 722 b 564 92 951 286 806 92 b 175 504 321 92 175 286 z m 1126 92 l 829 92 l 829 94 b 1060 504 989 179 1060 328 b 564 1008 1060 796 847 1008 b 67 504 279 1008 67 796 b 564 0 67 213 279 0 l 1126 0 z "},"R":{"ha":824,"x_min":0,"x_max":0,"o":"m 233 457 l 400 457 l 669 0 l 792 0 l 508 467 b 760 721 669 481 760 585 b 436 983 760 897 636 983 l 133 983 l 133 0 l 233 0 z m 233 892 l 411 892 b 651 721 590 892 651 815 b 411 549 651 626 590 549 l 233 549 z "},"S":{"ha":772,"x_min":0,"x_max":0,"o":"m 686 889 b 408 1008 608 978 519 1008 b 90 729 249 1008 90 919 b 594 246 90 369 594 524 b 383 67 594 131 482 67 b 160 186 281 67 201 114 l 69 121 b 379 -25 144 18 260 -25 b 703 260 535 -25 703 81 b 199 739 703 614 199 474 b 408 917 199 863 306 917 b 599 821 492 917 556 885 z "},"T":{"ha":797,"x_min":0,"x_max":0,"o":"m 449 892 l 778 892 l 778 983 l 19 983 l 19 892 l 349 892 l 349 0 l 449 0 z "},"U":{"ha":953,"x_min":0,"x_max":0,"o":"m 836 983 l 736 983 l 736 378 b 476 67 736 94 551 67 b 217 378 401 67 217 94 l 217 983 l 117 983 l 117 367 b 476 -25 117 203 182 -25 b 836 367 771 -25 836 203 z "},"V":{"ha":849,"x_min":0,"x_max":0,"o":"m 107 983 l -4 983 l 369 0 l 469 0 l 853 983 l 744 983 l 422 150 l 419 150 z "},"W":{"ha":1311,"x_min":0,"x_max":0,"o":"m 111 983 l 0 983 l 290 0 l 407 0 l 654 842 l 657 842 l 904 0 l 1021 0 l 1311 983 l 1200 983 l 967 142 l 964 142 l 717 983 l 597 983 l 350 142 l 347 142 z "},"X":{"ha":875,"x_min":0,"x_max":0,"o":"m 171 983 l 36 983 l 368 517 l 8 0 l 133 0 l 435 446 l 735 0 l 867 0 l 506 517 l 839 983 l 714 983 l 439 590 z "},"Y":{"ha":797,"x_min":0,"x_max":0,"o":"m 449 424 l 817 983 l 692 983 l 399 519 l 106 983 l -19 983 l 349 424 l 349 0 l 449 0 z "},"Z":{"ha":772,"x_min":0,"x_max":0,"o":"m 732 983 l 40 983 l 40 892 l 607 892 l 32 83 l 32 0 l 740 0 l 740 92 l 158 92 l 732 900 z "},"[":{"ha":361,"x_min":0,"x_max":0,"o":"m 315 1017 l 90 1017 l 90 -217 l 315 -217 l 315 -142 l 182 -142 l 182 942 l 315 942 z "},"\\":{"ha":514,"x_min":0,"x_max":0,"o":"m 426 -25 l 507 1 l 86 1008 l 7 981 z "},"]":{"ha":361,"x_min":0,"x_max":0,"o":"m 46 -217 l 271 -217 l 271 1017 l 46 1017 l 46 942 l 179 942 l 179 -142 l 46 -142 z "},"^":{"ha":925,"x_min":0,"x_max":0,"o":"m 111 382 l 197 382 l 463 883 l 728 382 l 814 382 l 496 983 l 429 983 z "},"_":{"ha":694,"x_min":0,"x_max":0,"o":"m 0 -174 l 694 -174 l 694 -104 l 0 -104 z "},"‘":{"ha":361,"x_min":0,"x_max":0,"o":"m 78 657 l 190 657 l 283 983 l 190 983 z "},"a":{"ha":721,"x_min":0,"x_max":0,"o":"m 471 399 b 67 174 315 399 67 385 b 290 -17 67 47 175 -17 b 519 106 394 -17 467 19 l 522 106 b 531 0 522 71 525 32 l 619 0 b 608 146 614 35 608 96 l 608 436 b 371 667 608 594 499 667 b 96 572 249 667 156 633 l 151 507 b 350 583 207 557 274 583 b 517 415 463 583 517 528 l 517 399 z m 517 324 l 517 276 b 319 67 517 161 453 67 b 167 186 246 67 167 100 b 469 324 167 317 376 324 z "},"b":{"ha":849,"x_min":0,"x_max":0,"o":"m 100 0 l 192 0 l 192 108 l 194 108 b 447 -17 254 21 361 -17 b 793 325 650 -17 793 129 b 447 667 793 521 650 667 b 194 542 361 667 254 629 l 192 542 l 192 1050 l 100 1050 z m 693 325 b 447 67 693 179 599 67 b 188 325 297 67 188 179 b 447 583 188 471 297 583 b 693 325 599 583 693 471 z "},"c":{"ha":669,"x_min":0,"x_max":0,"o":"m 649 554 b 411 667 585 629 499 665 b 67 325 199 669 67 521 b 411 -17 67 129 199 -19 b 649 96 499 -15 585 21 l 574 153 b 411 67 543 106 483 67 b 167 325 260 64 167 176 b 411 583 167 474 260 586 b 574 497 483 583 543 544 z "},"d":{"ha":849,"x_min":0,"x_max":0,"o":"m 749 1050 l 657 1050 l 657 542 l 654 542 b 401 667 594 629 488 667 b 56 325 199 667 56 521 b 401 -17 56 129 199 -17 b 654 108 488 -17 594 21 l 657 108 l 657 0 l 749 0 z m 156 325 b 401 583 156 471 250 583 b 661 325 551 583 661 471 b 401 67 661 179 551 67 b 156 325 250 67 156 179 z "},"e":{"ha":772,"x_min":0,"x_max":0,"o":"m 706 300 l 706 342 b 394 667 706 519 592 665 b 67 325 210 667 67 521 b 403 -17 67 129 210 -17 b 682 121 510 -17 606 24 l 611 179 b 403 67 575 121 500 67 b 164 300 274 67 175 169 z m 167 375 b 394 583 167 482 275 583 b 606 375 526 583 606 499 z "},"f":{"ha":411,"x_min":0,"x_max":0,"o":"m 403 650 l 249 650 l 249 817 b 367 983 249 911 265 983 b 438 974 390 983 415 979 l 454 1057 b 375 1067 428 1063 401 1067 b 157 828 243 1067 157 1000 l 157 650 l 19 650 l 19 567 l 157 567 l 157 0 l 249 0 l 249 567 l 403 567 z "},"g":{"ha":849,"x_min":0,"x_max":0,"o":"m 82 -203 b 394 -333 165 -292 265 -333 b 743 6 686 -333 743 -136 l 743 650 l 651 650 l 651 542 l 649 542 b 397 667 574 643 475 667 b 67 331 206 667 67 519 b 406 0 67 140 218 0 b 649 122 500 0 590 35 l 651 122 l 651 6 b 399 -250 651 -135 585 -250 b 150 -131 294 -250 204 -203 z m 167 333 b 408 583 167 469 272 583 b 654 333 561 583 654 469 b 408 83 660 183 542 83 b 167 333 272 83 167 197 z "},"h":{"ha":772,"x_min":0,"x_max":0,"o":"m 100 0 l 192 0 l 192 333 b 389 583 192 571 369 583 b 565 360 525 583 565 504 l 565 0 l 657 0 l 657 413 b 413 667 657 574 578 667 b 194 546 326 667 235 617 l 192 546 l 192 1050 l 100 1050 z "},"i":{"ha":333,"x_min":0,"x_max":0,"o":"m 213 650 l 121 650 l 121 0 l 213 0 z m 233 900 b 167 967 233 939 200 967 b 100 900 133 967 100 939 b 167 833 100 861 133 833 b 233 900 200 833 233 861 z "},"j":{"ha":333,"x_min":0,"x_max":0,"o":"m -43 -319 b 29 -333 -19 -329 4 -333 b 213 -129 224 -333 213 -167 l 213 650 l 121 650 l 121 -114 b 22 -250 121 -175 113 -250 b -26 -242 7 -250 -11 -246 l -31 -240 z m 233 900 b 167 967 233 939 200 967 b 100 900 133 967 100 939 b 167 833 100 861 133 833 b 233 900 200 833 233 861 z "},"k":{"ha":669,"x_min":0,"x_max":0,"o":"m 192 1050 l 100 1050 l 100 0 l 192 0 l 192 342 l 529 0 l 671 0 l 313 353 l 636 650 l 499 650 l 192 357 z "},"l":{"ha":333,"x_min":0,"x_max":0,"o":"m 213 1050 l 121 1050 l 121 0 l 213 0 z "},"m":{"ha":1183,"x_min":0,"x_max":0,"o":"m 100 0 l 192 0 l 192 333 b 375 583 192 571 353 583 b 539 379 501 583 539 511 l 539 0 l 631 0 l 631 346 b 814 583 631 467 678 583 b 978 379 940 583 978 511 l 978 0 l 1069 0 l 1069 413 b 825 667 1069 574 990 667 b 611 532 738 667 649 615 b 404 667 568 643 475 667 b 194 551 326 667 239 626 l 192 551 l 192 650 l 93 650 b 100 506 96 601 100 554 z "},"n":{"ha":772,"x_min":0,"x_max":0,"o":"m 93 650 b 100 507 96 603 100 542 l 100 0 l 192 0 l 192 333 b 389 583 192 571 369 583 b 565 360 525 583 565 504 l 565 0 l 657 0 l 657 413 b 413 667 657 574 578 667 b 194 546 326 667 235 617 l 192 546 b 188 650 192 581 192 615 z "},"o":{"ha":824,"x_min":0,"x_max":0,"o":"m 757 325 b 411 667 757 521 614 667 b 67 325 210 667 67 521 b 411 -17 67 129 210 -17 b 757 325 614 -17 757 129 z m 657 325 b 411 67 657 179 563 67 b 167 325 261 67 167 179 b 411 583 167 471 261 583 b 657 325 563 583 657 471 z "},"p":{"ha":849,"x_min":0,"x_max":0,"o":"m 100 -400 l 192 -400 l 192 108 l 194 108 b 447 -17 254 21 361 -17 b 793 325 650 -17 793 129 b 447 667 793 521 650 667 b 194 542 361 667 254 629 l 192 542 l 192 650 l 100 650 z m 693 325 b 447 67 693 179 599 67 b 188 325 297 67 188 179 b 447 583 188 471 297 583 b 693 325 599 583 693 471 z "},"q":{"ha":849,"x_min":0,"x_max":0,"o":"m 749 650 l 657 650 l 657 542 l 654 542 b 401 667 594 629 488 667 b 56 325 199 667 56 521 b 401 -17 56 129 199 -17 b 654 108 488 -17 594 21 l 657 108 l 657 -400 l 749 -400 z m 156 325 b 401 583 156 471 250 583 b 661 325 551 583 661 471 b 401 67 661 179 551 67 b 156 325 250 67 156 179 z "},"r":{"ha":461,"x_min":0,"x_max":0,"o":"m 110 0 l 201 0 l 201 367 b 403 575 201 454 264 575 b 456 568 428 575 444 572 l 474 658 b 406 667 454 664 432 667 b 197 529 292 667 224 599 l 194 529 l 194 650 l 104 650 b 110 447 107 556 110 506 z "},"s":{"ha":592,"x_min":0,"x_max":0,"o":"m 526 550 b 310 667 485 635 400 667 b 69 471 188 667 69 606 b 236 300 69 347 192 311 l 325 279 b 449 175 393 263 449 240 b 296 67 449 100 371 67 b 125 164 219 67 163 106 l 46 110 b 296 -17 107 18 197 -17 b 549 183 422 -17 549 42 b 390 361 549 275 481 340 l 297 383 b 169 486 213 403 169 425 b 304 583 169 556 240 583 b 444 496 371 583 417 549 z "},"t":{"ha":461,"x_min":0,"x_max":0,"o":"m 436 650 l 249 650 l 249 833 l 157 833 l 157 650 l 19 650 l 19 567 l 157 567 l 157 157 b 318 -17 157 14 249 -17 b 442 7 364 -17 408 -8 l 438 92 b 343 67 410 76 375 67 b 249 183 286 67 249 86 l 249 567 l 436 567 z "},"u":{"ha":772,"x_min":0,"x_max":0,"o":"m 664 0 b 657 143 661 47 657 108 l 657 650 l 565 650 l 565 317 b 368 67 565 79 388 67 b 192 290 232 67 192 146 l 192 650 l 100 650 l 100 238 b 344 -17 100 76 179 -17 b 563 104 431 -17 522 33 l 565 104 b 569 0 565 69 565 35 z "},"v":{"ha":669,"x_min":0,"x_max":0,"o":"m 650 650 l 546 650 l 339 103 l 336 103 l 129 650 l 19 650 l 283 0 l 386 0 z "},"w":{"ha":1003,"x_min":0,"x_max":0,"o":"m 19 650 l 225 0 l 328 0 l 500 533 l 503 533 l 675 0 l 778 0 l 983 650 l 875 650 l 725 122 l 722 122 l 549 650 l 454 650 l 281 122 l 278 122 l 128 650 z "},"x":{"ha":669,"x_min":0,"x_max":0,"o":"m 0 0 l 117 0 l 326 285 l 544 0 l 669 0 l 397 347 l 624 650 l 510 650 l 338 407 l 157 650 l 32 650 l 268 347 z "},"y":{"ha":669,"x_min":0,"x_max":0,"o":"m 138 650 l 22 650 l 289 -8 l 242 -133 b 117 -250 214 -207 181 -250 b 47 -235 92 -250 68 -246 l 38 -324 b 122 -333 65 -332 94 -333 b 326 -169 235 -333 288 -269 l 651 650 l 540 650 l 342 113 z "},"z":{"ha":592,"x_min":0,"x_max":0,"o":"m 546 650 l 51 650 l 51 567 l 413 567 l 32 67 l 32 0 l 560 0 l 560 83 l 165 83 l 546 583 z "},"{":{"ha":361,"x_min":0,"x_max":0,"o":"m 17 358 b 140 204 79 358 140 301 l 140 -43 b 290 -217 140 -174 211 -217 l 379 -217 l 379 -133 l 301 -133 b 232 -18 233 -133 232 -71 l 232 221 b 108 399 232 356 140 394 l 108 401 b 232 579 140 406 232 444 l 232 818 b 301 933 232 871 233 933 l 379 933 l 379 1017 l 290 1017 b 140 843 211 1017 140 974 l 140 596 b 17 442 140 499 79 442 z "},"|":{"ha":308,"x_min":0,"x_max":0,"o":"m 113 1042 l 113 -347 l 196 -347 l 196 1042 z "},"}":{"ha":361,"x_min":0,"x_max":0,"o":"m 344 442 b 221 596 282 442 221 499 l 221 843 b 71 1017 221 974 150 1017 l -18 1017 l -18 933 l 60 933 b 129 818 128 933 129 871 l 129 579 b 253 401 129 444 221 406 l 253 399 b 129 221 221 394 129 356 l 129 -18 b 60 -133 129 -71 128 -133 l -18 -133 l -18 -217 l 71 -217 b 221 -43 150 -217 221 -174 l 221 204 b 344 358 221 301 282 358 z "},"~":{"ha":925,"x_min":0,"x_max":0,"o":"m 743 511 b 606 410 718 474 669 410 b 457 475 554 410 503 450 b 313 515 389 513 371 515 b 124 386 222 515 165 444 l 182 331 b 319 432 207 368 256 432 b 468 367 371 432 422 392 b 613 326 536 329 554 326 b 801 456 703 326 760 397 z "},"¡":{"ha":386,"x_min":0,"x_max":0,"o":"m 143 -317 l 243 -317 l 243 400 l 143 400 z m 118 600 b 193 525 118 561 149 525 b 268 600 238 525 268 561 b 193 675 268 639 238 675 b 118 600 149 675 118 639 z "},"¢":{"ha":772,"x_min":0,"x_max":0,"o":"m 400 71 b 208 325 281 92 208 194 b 400 579 208 456 281 558 z m 467 582 b 615 497 533 578 588 542 l 690 554 b 467 665 631 625 550 661 l 467 750 l 400 750 l 400 663 b 108 325 218 643 108 504 b 400 -12 108 146 218 7 l 400 -100 l 467 -100 l 467 -15 b 690 96 550 -11 631 25 l 615 153 b 467 68 588 108 533 72 z "},"£":{"ha":772,"x_min":0,"x_max":0,"o":"m 592 549 l 358 549 l 358 661 b 549 917 358 756 378 917 b 703 846 613 917 665 888 l 768 917 b 553 1000 713 975 633 1000 b 258 669 324 1000 258 846 l 258 549 l 125 549 l 125 465 l 258 465 l 258 83 l 117 83 l 117 0 l 710 0 l 710 83 l 358 83 l 358 465 l 592 465 z "},"⁄":{"ha":233,"x_min":0,"x_max":0,"o":"m -160 -44 l 465 985 l 394 1028 l -232 0 z "},"¥":{"ha":772,"x_min":0,"x_max":0,"o":"m 110 310 l 110 235 l 336 235 l 336 0 l 436 0 l 436 235 l 663 235 l 663 310 l 436 310 l 436 417 l 446 433 l 663 433 l 663 508 l 492 508 l 775 983 l 657 983 l 386 511 l 115 983 l -3 983 l 282 508 l 110 508 l 110 433 l 326 433 l 336 417 l 336 310 z "},"ƒ":{"ha":772,"x_min":0,"x_max":0,"o":"m 588 582 l 438 582 l 468 756 b 593 917 478 814 501 917 b 672 893 621 917 649 907 l 719 960 b 588 1000 681 986 635 1000 b 376 782 449 1000 397 896 l 339 582 l 174 582 l 174 507 l 324 507 l 236 38 b 117 -110 224 -33 203 -110 b 44 -93 93 -110 65 -104 l 0 -160 b 114 -193 32 -183 74 -193 b 329 18 264 -193 310 -82 l 422 507 l 588 507 z "},"§":{"ha":772,"x_min":0,"x_max":0,"o":"m 629 869 b 390 1000 601 942 514 1000 b 147 781 261 1000 147 924 b 254 614 147 681 217 639 b 110 428 172 578 110 519 b 235 247 110 340 163 282 l 425 154 b 522 32 483 125 522 89 b 361 -110 522 -76 435 -110 b 178 11 285 -110 208 -75 l 86 -33 b 361 -193 131 -142 238 -193 b 622 33 496 -193 622 -122 b 526 207 622 113 596 158 b 647 389 599 246 647 304 b 513 582 647 485 590 542 l 360 660 b 247 792 297 692 247 724 b 397 917 247 822 269 917 b 547 828 483 917 529 864 z m 336 561 l 415 525 b 547 375 479 496 547 456 b 446 251 547 319 494 271 l 354 296 b 210 435 296 324 210 356 b 313 551 210 493 260 529 z "},"¤":{"ha":772,"x_min":0,"x_max":0,"o":"m 729 776 l 668 838 l 594 764 b 386 838 533 811 460 838 b 178 764 313 838 239 811 l 104 838 l 43 776 l 117 703 b 43 492 68 642 42 569 b 117 281 42 414 68 342 l 43 207 l 104 146 l 178 219 b 386 146 239 172 313 146 b 594 219 460 146 533 172 l 668 146 l 729 207 l 656 281 b 729 492 704 342 731 414 b 656 703 731 569 704 642 z m 135 492 b 388 754 135 636 247 754 b 638 492 526 754 638 636 b 388 229 638 347 526 229 b 135 492 247 229 135 347 z "},"'":{"ha":361,"x_min":0,"x_max":0,"o":"m 139 657 l 222 657 l 222 983 l 139 983 z "},"“":{"ha":721,"x_min":0,"x_max":0,"o":"m 132 657 l 244 657 l 338 983 l 244 983 z m 383 657 l 496 657 l 589 983 l 496 983 z "},"«":{"ha":669,"x_min":0,"x_max":0,"o":"m 332 578 l 267 624 l 72 333 l 267 43 l 332 89 l 172 333 z m 585 578 l 519 624 l 325 333 l 519 43 l 585 89 l 425 333 z "},"‹":{"ha":438,"x_min":0,"x_max":0,"o":"m 182 333 l 342 578 l 276 624 l 82 333 l 276 43 l 342 89 z "},"›":{"ha":438,"x_min":0,"x_max":0,"o":"m 256 333 l 96 89 l 161 43 l 356 333 l 161 624 l 96 578 z "},"ﬁ":{"ha":746,"x_min":0,"x_max":0,"o":"m 403 650 l 249 650 l 249 817 b 367 983 249 911 265 983 b 438 974 390 983 415 979 l 454 1057 b 375 1067 428 1063 401 1067 b 157 828 243 1067 157 1000 l 157 650 l 19 650 l 19 567 l 157 567 l 157 0 l 249 0 l 249 567 l 403 567 z m 625 650 l 533 650 l 533 0 l 625 0 z m 646 900 b 579 967 646 939 613 967 b 513 900 546 967 513 939 b 579 833 513 861 546 833 b 646 900 613 833 646 861 z "},"ﬂ":{"ha":746,"x_min":0,"x_max":0,"o":"m 403 650 l 249 650 l 249 817 b 367 983 249 911 265 983 b 438 974 390 983 415 979 l 454 1057 b 375 1067 428 1063 401 1067 b 157 828 243 1067 157 1000 l 157 650 l 19 650 l 19 567 l 157 567 l 157 0 l 249 0 l 249 567 l 403 567 z m 625 1050 l 533 1050 l 533 0 l 625 0 z "},"–":{"ha":694,"x_min":0,"x_max":0,"o":"m 694 379 l 0 379 l 0 288 l 694 288 z "},"†":{"ha":772,"x_min":0,"x_max":0,"o":"m 432 983 l 340 983 l 340 700 l 57 700 l 57 617 l 340 617 l 340 -175 l 432 -175 l 432 617 l 715 617 l 715 700 l 432 700 z "},"‡":{"ha":772,"x_min":0,"x_max":0,"o":"m 432 983 l 340 983 l 340 717 l 69 717 l 69 633 l 340 633 l 340 175 l 69 175 l 69 92 l 340 92 l 340 -175 l 432 -175 l 432 92 l 703 92 l 703 175 l 432 175 l 432 633 l 703 633 l 703 717 l 432 717 z "},"·":{"ha":386,"x_min":0,"x_max":0,"o":"m 268 436 b 193 511 268 475 238 511 b 118 436 149 511 118 475 b 193 361 118 397 149 361 b 268 436 238 361 268 397 z "},"¶":{"ha":833,"x_min":0,"x_max":0,"o":"m 713 983 l 383 983 b 67 697 189 983 67 878 b 357 439 67 553 188 439 l 357 -175 l 449 -175 l 449 908 l 621 908 l 621 -175 l 713 -175 z "},"•":{"ha":694,"x_min":0,"x_max":0,"o":"m 101 492 b 347 246 101 356 211 246 b 593 492 483 246 593 356 b 347 738 593 628 483 738 b 101 492 211 738 101 628 z "},"‚":{"ha":361,"x_min":0,"x_max":0,"o":"m 283 132 l 171 132 l 78 -194 l 171 -194 z "},"„":{"ha":721,"x_min":0,"x_max":0,"o":"m 589 132 l 476 132 l 383 -194 l 476 -194 z m 338 132 l 225 132 l 132 -194 l 225 -194 z "},"”":{"ha":721,"x_min":0,"x_max":0,"o":"m 589 983 l 476 983 l 383 657 l 476 657 z m 338 983 l 225 983 l 132 657 l 225 657 z "},"»":{"ha":669,"x_min":0,"x_max":0,"o":"m 338 89 l 403 43 l 597 333 l 403 624 l 338 578 l 497 333 z m 85 89 l 150 43 l 344 333 l 150 624 l 85 578 l 244 333 z "},"…":{"ha":1389,"x_min":0,"x_max":0,"o":"m 307 67 b 232 142 307 106 276 142 b 157 67 188 142 157 106 b 232 -8 157 28 188 -8 b 307 67 276 -8 307 28 z m 769 67 b 694 142 769 106 739 142 b 619 67 650 142 619 106 b 694 -8 619 28 650 -8 b 769 67 739 -8 769 28 z m 1232 67 b 1157 142 1232 106 1201 142 b 1082 67 1113 142 1082 106 b 1157 -8 1082 28 1113 -8 b 1232 67 1201 -8 1232 28 z "},"‰":{"ha":1389,"x_min":0,"x_max":0,"o":"m 460 786 b 247 1000 460 903 365 1000 b 35 786 129 1000 35 903 b 247 572 35 669 129 572 b 460 786 365 572 460 669 z m 385 786 b 247 647 385 710 324 647 b 110 786 171 647 110 710 b 247 925 110 863 171 925 b 385 786 324 925 385 863 z m 868 197 b 656 411 868 314 774 411 b 443 197 538 411 443 314 b 656 -17 443 81 538 -17 b 868 197 774 -17 868 81 z m 793 197 b 656 58 793 121 732 58 b 518 197 579 58 518 121 b 656 336 518 274 579 336 b 793 197 732 336 793 274 z m 1354 197 b 1142 411 1354 314 1260 411 b 929 197 1024 411 929 314 b 1142 -17 929 81 1024 -17 b 1354 197 1260 -17 1354 81 z m 1279 197 b 1142 58 1279 121 1218 58 b 1004 197 1065 58 1004 121 b 1142 336 1004 274 1065 336 b 1279 197 1218 336 1279 274 z m 799 989 l 728 1026 l 101 -6 l 174 -43 z "},"¿":{"ha":669,"x_min":0,"x_max":0,"o":"m 286 329 b 61 -90 286 126 61 146 b 325 -333 61 -247 176 -333 b 604 -103 468 -333 583 -249 l 500 -90 b 324 -242 483 -181 417 -242 b 161 -82 228 -242 161 -176 b 386 285 161 82 383 132 l 386 400 l 286 400 z m 253 600 b 328 525 253 561 283 525 b 403 600 372 525 403 561 b 328 675 403 639 372 675 b 253 600 283 675 253 639 z "},"`":{"ha":333,"x_min":0,"x_max":0,"o":"m 169 783 l 251 783 l 113 983 l -14 983 z "},"´":{"ha":333,"x_min":0,"x_max":0,"o":"m 347 983 l 221 983 l 82 783 l 164 783 z "},"ˆ":{"ha":333,"x_min":0,"x_max":0,"o":"m 222 983 l 111 983 l -40 783 l 51 783 l 167 933 l 282 783 l 374 783 z "},"˜":{"ha":333,"x_min":0,"x_max":0,"o":"m 1 800 b 69 869 10 835 28 869 b 163 838 99 869 131 854 b 264 806 196 822 231 806 b 392 950 347 806 379 878 l 332 950 b 264 881 324 915 306 881 b 171 913 236 881 204 897 b 69 944 138 929 103 944 b -58 800 -14 944 -46 872 z "},"¯":{"ha":333,"x_min":0,"x_max":0,"o":"m 354 908 l -21 908 l -21 833 l 354 833 z "},"˘":{"ha":333,"x_min":0,"x_max":0,"o":"m 310 983 b 167 875 297 911 236 875 b 24 983 97 875 36 911 l -37 983 b 167 800 -31 868 53 800 b 371 983 281 800 364 868 z "},"˙":{"ha":333,"x_min":0,"x_max":0,"o":"m 96 913 b 167 842 96 876 125 842 b 238 913 208 842 238 876 b 167 983 238 949 208 983 b 96 913 125 983 96 949 z "},"¨":{"ha":333,"x_min":0,"x_max":0,"o":"m -37 899 b 33 828 -37 863 -8 828 b 104 899 75 828 104 863 b 33 969 104 935 75 969 b -37 899 -8 969 -37 935 z m 229 899 b 300 828 229 863 258 828 b 371 899 342 828 371 863 b 300 969 371 935 342 969 b 229 899 258 969 229 935 z "},"˚":{"ha":333,"x_min":0,"x_max":0,"o":"m 300 903 b 167 1035 300 978 239 1035 b 33 903 94 1035 33 978 b 167 771 33 828 94 771 b 300 903 239 771 300 828 z m 250 903 b 167 821 250 857 213 821 b 83 903 121 821 83 857 b 167 985 83 949 121 985 b 250 903 213 985 250 949 z "},"¸":{"ha":333,"x_min":0,"x_max":0,"o":"m 217 0 l 160 0 l 74 -117 l 99 -140 b 163 -125 117 -132 136 -125 b 231 -181 219 -125 231 -164 b 144 -243 231 -226 185 -243 b 42 -218 110 -243 74 -235 l 19 -268 b 154 -301 61 -290 108 -301 b 314 -179 229 -301 314 -265 b 207 -75 314 -112 263 -75 b 157 -85 186 -75 172 -79 l 154 -83 z "},"˝":{"ha":333,"x_min":0,"x_max":0,"o":"m 161 983 l 35 983 l -106 783 l -24 783 z m 439 983 l 313 983 l 174 783 l 256 783 z "},"˛":{"ha":333,"x_min":0,"x_max":0,"o":"m 265 -196 b 194 -226 247 -215 219 -226 b 125 -160 157 -226 125 -199 b 232 8 125 -106 164 -60 l 165 8 b 42 -183 108 -37 42 -106 b 167 -301 42 -254 101 -301 b 292 -251 213 -301 260 -282 z "},"ˇ":{"ha":333,"x_min":0,"x_max":0,"o":"m 374 983 l 282 983 l 167 833 l 51 983 l -40 983 l 111 783 l 222 783 z "},"—":{"ha":1389,"x_min":0,"x_max":0,"o":"m 1389 379 l 0 379 l 0 288 l 1389 288 z "},"Æ":{"ha":1311,"x_min":0,"x_max":0,"o":"m 810 892 l 1218 892 l 1218 983 l 640 983 l 0 0 l 118 0 l 296 275 l 710 275 l 710 0 l 1235 0 l 1235 92 l 810 92 l 810 465 l 1193 465 l 1193 557 l 810 557 z m 354 367 l 694 892 l 710 892 l 710 367 z "},"ª":{"ha":468,"x_min":0,"x_max":0,"o":"m 189 589 b 326 647 254 589 301 611 l 328 647 l 332 597 l 407 597 b 400 685 404 621 400 654 l 400 875 b 225 1000 400 921 364 1000 b 60 943 165 1000 108 989 l 104 892 b 228 933 138 918 178 933 b 317 854 285 933 317 906 l 317 843 l 286 843 b 43 704 103 843 43 790 b 189 589 43 626 114 589 z m 317 776 b 208 656 317 728 306 656 b 126 708 168 656 126 672 b 299 776 126 776 251 776 z "},"Ł":{"ha":694,"x_min":0,"x_max":0,"o":"m 233 983 l 133 983 l 133 417 l 19 319 l 19 222 l 133 319 l 133 0 l 692 0 l 692 92 l 233 92 l 233 406 l 533 664 l 533 761 l 233 503 z "},"Ø":{"ha":1158,"x_min":0,"x_max":0,"o":"m 1064 961 l 1013 1008 l 907 896 b 579 1008 818 968 706 1008 b 67 492 286 1008 67 790 b 200 136 67 350 115 226 l 94 22 l 146 -25 l 251 88 b 579 -25 338 17 451 -25 b 1092 492 872 -25 1092 193 b 958 847 1092 633 1043 757 z m 889 772 b 983 492 950 696 983 596 b 579 67 983 265 832 67 b 318 160 472 67 385 101 z m 269 211 b 175 492 208 286 175 386 b 579 917 175 718 326 917 b 840 824 686 917 774 882 z "},"Œ":{"ha":1311,"x_min":0,"x_max":0,"o":"m 822 892 l 1231 892 l 1231 983 l 624 983 b 88 493 360 983 88 824 b 626 0 88 281 232 0 l 1247 0 l 1247 92 l 822 92 l 822 465 l 1214 465 l 1214 557 l 822 557 z m 722 92 l 624 92 b 196 489 263 92 196 372 b 643 892 196 753 388 892 l 722 892 z "},"º":{"ha":535,"x_min":0,"x_max":0,"o":"m 492 793 b 267 1000 492 913 399 1000 b 43 793 136 1000 43 913 b 267 589 43 676 136 589 b 492 793 399 589 492 676 z m 408 793 b 267 656 408 718 350 656 b 126 793 185 656 126 718 b 267 933 126 869 185 933 b 408 793 350 933 408 869 z "},"æ":{"ha":1183,"x_min":0,"x_max":0,"o":"m 1117 300 l 1117 342 b 822 667 1117 525 1014 665 b 590 542 729 667 632 618 b 375 667 560 613 475 667 b 117 572 269 667 179 631 l 174 506 b 371 583 228 557 294 583 b 538 415 419 583 535 553 l 538 375 l 383 375 b 67 174 238 375 67 347 b 290 -17 67 47 175 -17 b 579 135 426 -17 514 25 b 822 -17 626 31 725 -17 b 1094 115 924 -17 1024 25 l 1022 172 b 819 67 982 117 931 67 b 629 288 700 67 629 169 l 629 300 z m 538 300 l 538 288 b 319 67 538 158 451 67 b 167 186 246 67 167 100 b 347 300 167 274 269 300 z m 629 375 b 825 583 629 494 715 583 b 1025 375 947 583 1025 496 z "},"ı":{"ha":333,"x_min":0,"x_max":0,"o":"m 213 650 l 121 650 l 121 0 l 213 0 z "},"ł":{"ha":333,"x_min":0,"x_max":0,"o":"m 213 1050 l 121 1050 l 121 540 l 8 426 l 8 325 l 121 440 l 121 0 l 213 0 l 213 536 l 325 651 l 325 753 l 213 636 z "},"ø":{"ha":824,"x_min":0,"x_max":0,"o":"m 610 483 b 657 325 640 439 657 385 b 411 67 657 179 563 67 b 256 119 349 67 296 86 z m 214 167 b 167 325 183 208 167 264 b 411 583 167 471 261 583 b 568 529 474 583 528 564 z m 768 646 l 724 689 l 632 594 b 411 667 572 640 497 667 b 67 325 210 667 67 521 b 147 99 67 236 96 158 l 56 4 l 100 -39 l 193 56 b 411 -17 249 11 324 -17 b 757 325 614 -17 757 129 b 676 551 757 415 726 494 z "},"œ":{"ha":1281,"x_min":0,"x_max":0,"o":"m 1214 300 l 1214 342 b 919 667 1214 525 1111 665 b 671 521 804 667 732 614 b 396 667 610 625 501 667 b 67 325 210 667 67 521 b 396 -17 67 129 197 -17 b 667 131 478 -17 594 25 b 919 -17 718 31 814 -17 b 1192 115 1021 -17 1121 25 l 1119 172 b 917 67 1079 117 1028 67 b 726 288 797 67 726 169 l 726 300 z m 626 325 b 396 67 626 186 546 67 b 167 325 261 67 167 179 b 396 583 167 471 261 583 b 626 325 546 583 626 464 z m 726 375 b 922 583 726 494 813 583 b 1122 375 1044 583 1122 496 z "},"ß":{"ha":824,"x_min":0,"x_max":0,"o":"m 208 764 b 404 983 208 861 256 983 b 575 808 499 983 575 919 b 372 638 575 683 485 638 l 372 554 b 651 311 544 554 651 481 b 408 67 651 157 556 67 b 342 74 386 67 364 68 l 342 -6 b 422 -17 368 -14 396 -17 b 751 310 618 -17 751 113 b 514 597 751 453 678 583 l 514 600 b 675 821 622 639 675 711 b 410 1067 675 976 558 1067 b 117 756 186 1067 117 919 l 117 0 l 208 0 z "},"¹":{"ha":501,"x_min":0,"x_max":0,"o":"m 313 992 l 238 992 l 75 868 l 115 815 l 229 908 l 229 401 l 313 401 z "},"¬":{"ha":925,"x_min":0,"x_max":0,"o":"m 817 567 l 108 567 l 108 483 l 733 483 l 733 181 l 817 181 z "},"µ":{"ha":772,"x_min":0,"x_max":0,"o":"m 100 -317 l 192 -317 l 192 24 b 344 -17 229 -3 281 -17 b 563 106 431 -17 522 40 l 565 106 l 565 0 l 664 0 b 657 143 661 47 657 96 l 657 650 l 565 650 l 565 317 b 368 67 565 157 479 67 b 192 290 235 67 192 131 l 192 650 l 100 650 z "},"™":{"ha":1389,"x_min":0,"x_max":0,"o":"m 557 983 l 100 983 l 100 908 l 289 908 l 289 411 l 372 411 l 372 908 l 557 908 z m 1289 983 l 1164 983 l 985 544 l 806 983 l 676 983 l 676 411 l 760 411 l 760 892 l 763 892 l 956 411 l 1010 411 l 1203 892 l 1206 892 l 1206 411 l 1289 411 z "},"Ð":{"ha":1029,"x_min":0,"x_max":0,"o":"m 119 0 l 446 0 b 963 492 692 0 963 164 b 446 983 963 819 692 983 l 119 983 l 119 557 l 18 557 l 18 482 l 119 482 z m 219 482 l 578 482 l 578 557 l 219 557 l 219 892 l 414 892 b 854 492 714 892 854 694 b 414 92 854 289 714 92 l 219 92 z "},"½":{"ha":1158,"x_min":0,"x_max":0,"o":"m 250 -44 l 875 985 l 804 1028 l 178 0 z m 292 992 l 217 992 l 54 868 l 94 815 l 208 908 l 208 401 l 292 401 z m 1104 75 l 789 75 l 969 238 b 1099 446 1033 296 1099 356 b 906 599 1099 547 1008 599 b 710 458 807 599 728 549 l 788 446 b 910 524 801 489 849 524 b 1015 440 960 524 1015 486 b 935 307 1015 386 972 343 l 697 79 l 697 0 l 1104 0 z "},"±":{"ha":925,"x_min":0,"x_max":0,"o":"m 108 482 l 421 482 l 421 272 l 504 272 l 504 482 l 817 482 l 817 565 l 504 565 l 504 782 l 421 782 l 421 565 l 108 565 z m 108 67 l 817 67 l 817 150 l 108 150 z "},"Þ":{"ha":797,"x_min":0,"x_max":0,"o":"m 133 0 l 233 0 l 233 240 l 456 240 b 743 504 619 240 743 326 b 456 767 743 681 619 767 l 233 767 l 233 983 l 133 983 z m 233 675 l 394 675 b 635 504 500 675 635 663 b 394 332 635 344 500 332 l 233 332 z "},"¼":{"ha":1158,"x_min":0,"x_max":0,"o":"m 986 590 l 885 590 l 636 217 l 636 131 l 903 131 l 903 0 l 986 0 l 986 131 l 1069 131 l 1069 206 l 986 206 z m 285 -44 l 910 985 l 839 1028 l 213 0 z m 903 206 l 711 206 l 900 507 l 903 507 z m 326 992 l 251 992 l 89 868 l 129 815 l 243 908 l 243 401 l 326 401 z "},"÷":{"ha":925,"x_min":0,"x_max":0,"o":"m 817 463 l 108 463 l 108 379 l 817 379 z m 538 646 b 463 721 538 685 507 721 b 388 646 418 721 388 685 b 463 571 388 607 418 571 b 538 646 507 571 538 607 z m 538 196 b 463 271 538 235 507 271 b 388 196 418 271 388 235 b 463 121 388 157 418 121 b 538 196 507 121 538 157 z "},"¦":{"ha":308,"x_min":0,"x_max":0,"o":"m 113 938 l 113 451 l 196 451 l 196 938 z m 113 243 l 113 -243 l 196 -243 l 196 243 z "},"°":{"ha":556,"x_min":0,"x_max":0,"o":"m 485 793 b 278 1000 485 913 397 1000 b 71 793 158 1000 71 913 b 278 586 71 674 158 586 b 485 793 397 586 485 674 z m 418 793 b 278 653 418 715 356 653 b 138 793 200 653 138 715 b 278 933 138 871 200 933 b 418 793 356 933 418 871 z "},"þ":{"ha":849,"x_min":0,"x_max":0,"o":"m 100 -317 l 192 -317 l 192 108 l 194 108 b 447 -17 254 21 361 -17 b 793 325 650 -17 793 129 b 447 667 793 521 650 667 b 194 529 374 667 276 642 l 192 529 l 192 1050 l 100 1050 z m 693 325 b 447 67 693 179 599 67 b 188 325 289 67 188 179 b 447 583 188 471 297 583 b 693 325 599 583 693 471 z "},"¾":{"ha":1158,"x_min":0,"x_max":0,"o":"m 1014 590 l 913 590 l 664 217 l 664 131 l 931 131 l 931 0 l 1014 0 l 1014 131 l 1097 131 l 1097 206 l 1014 206 z m 340 -44 l 965 985 l 894 1028 l 268 0 z m 931 206 l 739 206 l 928 507 l 931 507 z m 193 671 l 233 671 b 383 564 357 671 383 607 b 268 468 383 517 322 468 b 132 554 190 468 154 499 l 61 513 b 263 393 96 429 168 393 b 467 563 374 393 467 454 b 335 707 467 635 419 693 l 335 710 b 449 847 399 729 449 782 b 264 1000 449 944 364 1000 b 81 907 186 1000 128 976 l 146 861 b 265 925 182 911 213 925 b 365 844 322 925 365 889 b 226 746 365 776 301 746 l 193 746 z "},"²":{"ha":501,"x_min":0,"x_max":0,"o":"m 454 476 l 139 476 l 319 639 b 449 847 383 697 449 757 b 256 1000 449 949 358 1000 b 60 860 157 1000 78 950 l 138 847 b 260 925 151 890 199 925 b 365 842 310 925 365 888 b 285 708 365 788 322 744 l 47 481 l 47 401 l 454 401 z "},"®":{"ha":1111,"x_min":0,"x_max":0,"o":"m 363 189 l 446 189 l 446 446 l 553 446 l 717 189 l 807 189 l 635 453 b 793 615 724 463 793 508 b 582 788 793 735 725 788 l 363 788 z m 446 713 l 575 713 b 710 619 639 713 710 703 b 549 521 710 525 632 521 l 446 521 z m 35 489 b 556 -25 35 197 272 -25 b 1076 494 839 -25 1076 197 b 556 1008 1076 786 839 1008 b 35 489 272 1008 35 786 z m 118 489 b 556 933 118 743 313 933 b 993 494 799 933 993 743 b 556 50 993 242 799 50 b 118 489 313 50 118 242 z "},"−":{"ha":925,"x_min":0,"x_max":0,"o":"m 817 463 l 108 463 l 108 379 l 817 379 z "},"ð":{"ha":824,"x_min":0,"x_max":0,"o":"m 167 325 b 411 583 167 471 261 583 b 657 325 563 583 657 471 b 411 67 657 179 563 67 b 167 325 261 67 167 179 z m 632 992 l 576 1040 l 435 967 b 300 1082 393 1006 347 1043 l 217 1031 b 349 921 257 1003 301 965 l 199 843 l 249 793 l 401 872 b 622 589 486 797 550 725 l 619 586 b 411 667 553 642 492 667 b 67 325 210 667 67 521 b 411 -17 67 129 210 -17 b 757 353 679 -17 756 186 b 489 917 760 572 658 747 z "},"×":{"ha":925,"x_min":0,"x_max":0,"o":"m 242 701 l 183 643 l 404 421 l 183 200 l 242 140 l 463 361 l 682 140 l 742 200 l 521 421 l 742 643 l 682 701 l 463 481 z "},"³":{"ha":501,"x_min":0,"x_max":0,"o":"m 181 671 l 221 671 b 371 564 344 671 371 607 b 256 468 371 517 310 468 b 119 554 178 468 142 499 l 47 513 b 250 393 83 429 156 393 b 454 563 361 393 454 454 b 322 707 454 635 407 693 l 322 710 b 436 847 386 729 436 782 b 251 1000 436 944 351 1000 b 68 907 174 1000 115 976 l 133 861 b 253 925 169 911 200 925 b 353 839 310 925 353 889 b 214 746 353 776 289 746 l 181 746 z "},"©":{"ha":1111,"x_min":0,"x_max":0,"o":"m 757 392 b 576 250 742 313 672 250 b 350 494 440 250 350 367 b 574 732 350 626 432 732 b 757 596 669 732 742 674 l 835 596 b 572 807 815 736 704 807 b 267 492 382 807 267 675 b 576 175 267 311 389 175 b 836 392 704 175 806 258 z m 35 489 b 556 -25 35 197 272 -25 b 1076 494 839 -25 1076 197 b 556 1008 1076 786 839 1008 b 35 489 272 1008 35 786 z m 118 489 b 556 933 118 743 313 933 b 993 494 799 933 993 743 b 556 50 993 242 799 50 b 118 489 313 50 118 242 z "},"Á":{"ha":953,"x_min":0,"x_max":0,"o":"m 225 258 l 728 258 l 836 0 l 953 0 l 525 983 l 428 983 l 0 0 l 117 0 z m 476 867 l 689 350 l 263 350 z m 657 1226 l 531 1226 l 392 1026 l 474 1026 z "},"Â":{"ha":953,"x_min":0,"x_max":0,"o":"m 225 258 l 728 258 l 836 0 l 953 0 l 525 983 l 428 983 l 0 0 l 117 0 z m 476 867 l 689 350 l 263 350 z m 532 1226 l 421 1226 l 269 1026 l 361 1026 l 476 1176 l 592 1026 l 683 1026 z "},"Ä":{"ha":953,"x_min":0,"x_max":0,"o":"m 225 258 l 728 258 l 836 0 l 953 0 l 525 983 l 428 983 l 0 0 l 117 0 z m 476 867 l 689 350 l 263 350 z m 272 1142 b 343 1071 272 1106 301 1071 b 414 1142 385 1071 414 1106 b 343 1213 414 1178 385 1213 b 272 1142 301 1213 272 1178 z m 539 1142 b 610 1071 539 1106 568 1071 b 681 1142 651 1071 681 1106 b 610 1213 681 1178 651 1213 b 539 1142 568 1213 539 1178 z "},"À":{"ha":953,"x_min":0,"x_max":0,"o":"m 225 258 l 728 258 l 836 0 l 953 0 l 525 983 l 428 983 l 0 0 l 117 0 z m 476 867 l 689 350 l 263 350 z m 479 1026 l 561 1026 l 422 1226 l 296 1226 z "},"Å":{"ha":953,"x_min":0,"x_max":0,"o":"m 225 258 l 728 258 l 836 0 l 953 0 l 525 983 l 428 983 l 0 0 l 117 0 z m 476 867 l 689 350 l 263 350 z m 610 1146 b 476 1278 610 1221 549 1278 b 343 1146 404 1278 343 1221 b 476 1014 343 1071 404 1014 b 610 1146 549 1014 610 1071 z m 560 1146 b 476 1064 560 1100 522 1064 b 393 1146 431 1064 393 1100 b 476 1228 393 1192 431 1228 b 560 1146 522 1228 560 1192 z "},"Ã":{"ha":953,"x_min":0,"x_max":0,"o":"m 225 258 l 728 258 l 836 0 l 953 0 l 525 983 l 428 983 l 0 0 l 117 0 z m 476 867 l 689 350 l 263 350 z m 311 1043 b 379 1113 319 1078 338 1113 b 472 1081 408 1113 440 1097 b 574 1049 506 1065 540 1049 b 701 1193 657 1049 689 1121 l 642 1193 b 574 1124 633 1158 615 1124 b 481 1156 546 1124 514 1140 b 379 1188 447 1172 413 1188 b 251 1043 296 1188 264 1115 z "},"Ç":{"ha":978,"x_min":0,"x_max":0,"o":"m 861 214 b 579 67 788 100 682 67 b 175 492 326 67 175 265 b 579 917 175 718 326 917 b 832 788 683 917 793 851 l 919 853 b 579 1008 833 963 701 1008 b 67 492 286 1008 67 790 b 496 -18 67 222 244 19 l 424 -117 l 449 -140 b 513 -125 467 -132 486 -125 b 581 -181 569 -125 581 -164 b 494 -243 581 -226 535 -243 b 392 -218 460 -243 424 -235 l 369 -268 b 504 -301 411 -290 458 -301 b 664 -179 579 -301 664 -265 b 557 -75 664 -112 613 -75 b 507 -85 536 -75 522 -79 l 504 -83 l 550 -22 b 579 -25 560 -25 569 -25 b 943 156 742 -25 878 54 z "},"É":{"ha":824,"x_min":0,"x_max":0,"o":"m 233 465 l 710 465 l 710 557 l 233 557 l 233 892 l 743 892 l 743 983 l 133 983 l 133 0 l 760 0 l 760 92 l 233 92 z m 593 1226 l 467 1226 l 328 1026 l 410 1026 z "},"Ê":{"ha":824,"x_min":0,"x_max":0,"o":"m 233 465 l 710 465 l 710 557 l 233 557 l 233 892 l 743 892 l 743 983 l 133 983 l 133 0 l 760 0 l 760 92 l 233 92 z m 468 1226 l 357 1226 l 206 1026 l 297 1026 l 413 1176 l 528 1026 l 619 1026 z "},"Ë":{"ha":824,"x_min":0,"x_max":0,"o":"m 233 465 l 710 465 l 710 557 l 233 557 l 233 892 l 743 892 l 743 983 l 133 983 l 133 0 l 760 0 l 760 92 l 233 92 z m 208 1142 b 279 1071 208 1106 238 1071 b 350 1142 321 1071 350 1106 b 279 1213 350 1178 321 1213 b 208 1142 238 1213 208 1178 z m 475 1142 b 546 1071 475 1106 504 1071 b 617 1142 588 1071 617 1106 b 546 1213 617 1178 588 1213 b 475 1142 504 1213 475 1178 z "},"È":{"ha":824,"x_min":0,"x_max":0,"o":"m 233 465 l 710 465 l 710 557 l 233 557 l 233 892 l 743 892 l 743 983 l 133 983 l 133 0 l 760 0 l 760 92 l 233 92 z m 415 1026 l 497 1026 l 358 1226 l 232 1226 z "},"Í":{"ha":367,"x_min":0,"x_max":0,"o":"m 233 983 l 133 983 l 133 0 l 233 0 z m 364 1226 l 238 1226 l 99 1026 l 181 1026 z "},"Î":{"ha":367,"x_min":0,"x_max":0,"o":"m 233 983 l 133 983 l 133 0 l 233 0 z m 239 1226 l 128 1226 l -24 1026 l 68 1026 l 183 1176 l 299 1026 l 390 1026 z "},"Ï":{"ha":367,"x_min":0,"x_max":0,"o":"m 233 983 l 133 983 l 133 0 l 233 0 z m -21 1142 b 50 1071 -21 1106 8 1071 b 121 1142 92 1071 121 1106 b 50 1213 121 1178 92 1213 b -21 1142 8 1213 -21 1178 z m 246 1142 b 317 1071 246 1106 275 1071 b 388 1142 358 1071 388 1106 b 317 1213 388 1178 358 1213 b 246 1142 275 1213 246 1178 z "},"Ì":{"ha":367,"x_min":0,"x_max":0,"o":"m 233 983 l 133 983 l 133 0 l 233 0 z m 186 1026 l 268 1026 l 129 1226 l 3 1226 z "},"Ñ":{"ha":1081,"x_min":0,"x_max":0,"o":"m 258 983 l 133 983 l 133 0 l 233 0 l 233 842 l 236 842 l 822 0 l 947 0 l 947 983 l 847 983 l 847 150 l 844 150 z m 375 1043 b 443 1113 383 1078 401 1113 b 536 1081 472 1113 504 1097 b 638 1049 569 1065 604 1049 b 765 1193 721 1049 753 1121 l 706 1193 b 638 1124 697 1158 679 1124 b 544 1156 610 1124 578 1140 b 443 1188 511 1172 476 1188 b 315 1043 360 1188 328 1115 z "},"Ó":{"ha":1158,"x_min":0,"x_max":0,"o":"m 1092 492 b 579 1008 1092 790 872 1008 b 67 492 286 1008 67 790 b 579 -25 67 193 286 -25 b 1092 492 872 -25 1092 193 z m 983 492 b 579 67 983 265 832 67 b 175 492 326 67 175 265 b 579 917 175 718 326 917 b 983 492 832 917 983 718 z m 760 1226 l 633 1226 l 494 1026 l 576 1026 z "},"Ô":{"ha":1158,"x_min":0,"x_max":0,"o":"m 1092 492 b 579 1008 1092 790 872 1008 b 67 492 286 1008 67 790 b 579 -25 67 193 286 -25 b 1092 492 872 -25 1092 193 z m 983 492 b 579 67 983 265 832 67 b 175 492 326 67 175 265 b 579 917 175 718 326 917 b 983 492 832 917 983 718 z m 635 1226 l 524 1226 l 372 1026 l 464 1026 l 579 1176 l 694 1026 l 786 1026 z "},"Ö":{"ha":1158,"x_min":0,"x_max":0,"o":"m 1092 492 b 579 1008 1092 790 872 1008 b 67 492 286 1008 67 790 b 579 -25 67 193 286 -25 b 1092 492 872 -25 1092 193 z m 983 492 b 579 67 983 265 832 67 b 175 492 326 67 175 265 b 579 917 175 718 326 917 b 983 492 832 917 983 718 z m 375 1142 b 446 1071 375 1106 404 1071 b 517 1142 488 1071 517 1106 b 446 1213 517 1178 488 1213 b 375 1142 404 1213 375 1178 z m 642 1142 b 713 1071 642 1106 671 1071 b 783 1142 754 1071 783 1106 b 713 1213 783 1178 754 1213 b 642 1142 671 1213 642 1178 z "},"Ò":{"ha":1158,"x_min":0,"x_max":0,"o":"m 1092 492 b 579 1008 1092 790 872 1008 b 67 492 286 1008 67 790 b 579 -25 67 193 286 -25 b 1092 492 872 -25 1092 193 z m 983 492 b 579 67 983 265 832 67 b 175 492 326 67 175 265 b 579 917 175 718 326 917 b 983 492 832 917 983 718 z m 582 1026 l 664 1026 l 525 1226 l 399 1226 z "},"Õ":{"ha":1158,"x_min":0,"x_max":0,"o":"m 1092 492 b 579 1008 1092 790 872 1008 b 67 492 286 1008 67 790 b 579 -25 67 193 286 -25 b 1092 492 872 -25 1092 193 z m 983 492 b 579 67 983 265 832 67 b 175 492 326 67 175 265 b 579 917 175 718 326 917 b 983 492 832 917 983 718 z m 414 1043 b 482 1113 422 1078 440 1113 b 575 1081 511 1113 543 1097 b 676 1049 608 1065 643 1049 b 804 1193 760 1049 792 1121 l 744 1193 b 676 1124 736 1158 718 1124 b 583 1156 649 1124 617 1140 b 482 1188 550 1172 515 1188 b 354 1043 399 1188 367 1115 z "},"Š":{"ha":772,"x_min":0,"x_max":0,"o":"m 686 889 b 408 1008 608 978 519 1008 b 90 729 249 1008 90 919 b 594 246 90 369 594 524 b 383 67 594 131 482 67 b 160 186 281 67 201 114 l 69 121 b 379 -25 144 18 260 -25 b 703 260 535 -25 703 81 b 199 739 703 614 199 474 b 408 917 199 863 306 917 b 599 821 492 917 556 885 z m 593 1226 l 501 1226 l 386 1076 l 271 1226 l 179 1226 l 331 1026 l 442 1026 z "},"Ú":{"ha":953,"x_min":0,"x_max":0,"o":"m 836 983 l 736 983 l 736 378 b 476 67 736 94 551 67 b 217 378 401 67 217 94 l 217 983 l 117 983 l 117 367 b 476 -25 117 203 182 -25 b 836 367 771 -25 836 203 z m 657 1226 l 531 1226 l 392 1026 l 474 1026 z "},"Û":{"ha":953,"x_min":0,"x_max":0,"o":"m 836 983 l 736 983 l 736 378 b 476 67 736 94 551 67 b 217 378 401 67 217 94 l 217 983 l 117 983 l 117 367 b 476 -25 117 203 182 -25 b 836 367 771 -25 836 203 z m 532 1226 l 421 1226 l 269 1026 l 361 1026 l 476 1176 l 592 1026 l 683 1026 z "},"Ü":{"ha":953,"x_min":0,"x_max":0,"o":"m 836 983 l 736 983 l 736 378 b 476 67 736 94 551 67 b 217 378 401 67 217 94 l 217 983 l 117 983 l 117 367 b 476 -25 117 203 182 -25 b 836 367 771 -25 836 203 z m 272 1142 b 343 1071 272 1106 301 1071 b 414 1142 385 1071 414 1106 b 343 1213 414 1178 385 1213 b 272 1142 301 1213 272 1178 z m 539 1142 b 610 1071 539 1106 568 1071 b 681 1142 651 1071 681 1106 b 610 1213 681 1178 651 1213 b 539 1142 568 1213 539 1178 z "},"Ù":{"ha":953,"x_min":0,"x_max":0,"o":"m 836 983 l 736 983 l 736 378 b 476 67 736 94 551 67 b 217 378 401 67 217 94 l 217 983 l 117 983 l 117 367 b 476 -25 117 203 182 -25 b 836 367 771 -25 836 203 z m 479 1026 l 561 1026 l 422 1226 l 296 1226 z "},"Ý":{"ha":797,"x_min":0,"x_max":0,"o":"m 449 424 l 817 983 l 692 983 l 399 519 l 106 983 l -19 983 l 349 424 l 349 0 l 449 0 z m 579 1226 l 453 1226 l 314 1026 l 396 1026 z "},"Ÿ":{"ha":797,"x_min":0,"x_max":0,"o":"m 449 424 l 817 983 l 692 983 l 399 519 l 106 983 l -19 983 l 349 424 l 349 0 l 449 0 z m 194 1142 b 265 1071 194 1106 224 1071 b 336 1142 307 1071 336 1106 b 265 1213 336 1178 307 1213 b 194 1142 224 1213 194 1178 z m 461 1142 b 532 1071 461 1106 490 1071 b 603 1142 574 1071 603 1106 b 532 1213 603 1178 574 1213 b 461 1142 490 1213 461 1178 z "},"Ž":{"ha":772,"x_min":0,"x_max":0,"o":"m 732 983 l 40 983 l 40 892 l 607 892 l 32 83 l 32 0 l 740 0 l 740 92 l 158 92 l 732 900 z m 593 1226 l 501 1226 l 386 1076 l 271 1226 l 179 1226 l 331 1026 l 442 1026 z "},"á":{"ha":721,"x_min":0,"x_max":0,"o":"m 471 399 b 67 174 315 399 67 385 b 290 -17 67 47 175 -17 b 519 106 394 -17 467 19 l 522 106 b 531 0 522 71 525 32 l 619 0 b 608 146 614 35 608 96 l 608 436 b 371 667 608 594 499 667 b 96 572 249 667 156 633 l 151 507 b 350 583 207 557 274 583 b 517 415 463 583 517 528 l 517 399 z m 517 324 l 517 276 b 319 67 517 161 453 67 b 167 186 246 67 167 100 b 469 324 167 317 376 324 z m 542 983 l 415 983 l 276 783 l 358 783 z "},"â":{"ha":721,"x_min":0,"x_max":0,"o":"m 471 399 b 67 174 315 399 67 385 b 290 -17 67 47 175 -17 b 519 106 394 -17 467 19 l 522 106 b 531 0 522 71 525 32 l 619 0 b 608 146 614 35 608 96 l 608 436 b 371 667 608 594 499 667 b 96 572 249 667 156 633 l 151 507 b 350 583 207 557 274 583 b 517 415 463 583 517 528 l 517 399 z m 517 324 l 517 276 b 319 67 517 161 453 67 b 167 186 246 67 167 100 b 469 324 167 317 376 324 z m 417 983 l 306 983 l 154 783 l 246 783 l 361 933 l 476 783 l 568 783 z "},"ä":{"ha":721,"x_min":0,"x_max":0,"o":"m 471 399 b 67 174 315 399 67 385 b 290 -17 67 47 175 -17 b 519 106 394 -17 467 19 l 522 106 b 531 0 522 71 525 32 l 619 0 b 608 146 614 35 608 96 l 608 436 b 371 667 608 594 499 667 b 96 572 249 667 156 633 l 151 507 b 350 583 207 557 274 583 b 517 415 463 583 517 528 l 517 399 z m 517 324 l 517 276 b 319 67 517 161 453 67 b 167 186 246 67 167 100 b 469 324 167 317 376 324 z m 157 899 b 228 828 157 863 186 828 b 299 899 269 828 299 863 b 228 969 299 935 269 969 b 157 899 186 969 157 935 z m 424 899 b 494 828 424 863 453 828 b 565 899 536 828 565 863 b 494 969 565 935 536 969 b 424 899 453 969 424 935 z "},"à":{"ha":721,"x_min":0,"x_max":0,"o":"m 471 399 b 67 174 315 399 67 385 b 290 -17 67 47 175 -17 b 519 106 394 -17 467 19 l 522 106 b 531 0 522 71 525 32 l 619 0 b 608 146 614 35 608 96 l 608 436 b 371 667 608 594 499 667 b 96 572 249 667 156 633 l 151 507 b 350 583 207 557 274 583 b 517 415 463 583 517 528 l 517 399 z m 517 324 l 517 276 b 319 67 517 161 453 67 b 167 186 246 67 167 100 b 469 324 167 317 376 324 z m 364 783 l 446 783 l 307 983 l 181 983 z "},"å":{"ha":721,"x_min":0,"x_max":0,"o":"m 471 399 b 67 174 315 399 67 385 b 290 -17 67 47 175 -17 b 519 106 394 -17 467 19 l 522 106 b 531 0 522 71 525 32 l 619 0 b 608 146 614 35 608 96 l 608 436 b 371 667 608 594 499 667 b 96 572 249 667 156 633 l 151 507 b 350 583 207 557 274 583 b 517 415 463 583 517 528 l 517 399 z m 517 324 l 517 276 b 319 67 517 161 453 67 b 167 186 246 67 167 100 b 469 324 167 317 376 324 z m 494 903 b 361 1035 494 978 433 1035 b 228 903 289 1035 228 978 b 361 771 228 828 289 771 b 494 903 433 771 494 828 z m 444 903 b 361 821 444 857 407 821 b 278 903 315 821 278 857 b 361 985 278 949 315 985 b 444 903 407 985 444 949 z "},"ã":{"ha":721,"x_min":0,"x_max":0,"o":"m 471 399 b 67 174 315 399 67 385 b 290 -17 67 47 175 -17 b 519 106 394 -17 467 19 l 522 106 b 531 0 522 71 525 32 l 619 0 b 608 146 614 35 608 96 l 608 436 b 371 667 608 594 499 667 b 96 572 249 667 156 633 l 151 507 b 350 583 207 557 274 583 b 517 415 463 583 517 528 l 517 399 z m 517 324 l 517 276 b 319 67 517 161 453 67 b 167 186 246 67 167 100 b 469 324 167 317 376 324 z m 196 800 b 264 869 204 835 222 869 b 357 838 293 869 325 854 b 458 806 390 822 425 806 b 586 950 542 806 574 878 l 526 950 b 458 881 518 915 500 881 b 365 913 431 881 399 897 b 264 944 332 929 297 944 b 136 800 181 944 149 872 z "},"ç":{"ha":669,"x_min":0,"x_max":0,"o":"m 649 554 b 411 667 585 629 499 665 b 67 325 199 669 67 521 b 347 -11 67 150 172 13 l 269 -117 l 294 -140 b 358 -125 313 -132 332 -125 b 426 -181 415 -125 426 -164 b 340 -243 426 -226 381 -243 b 238 -218 306 -243 269 -235 l 215 -268 b 350 -301 257 -290 304 -301 b 510 -179 425 -301 510 -265 b 403 -75 510 -112 458 -75 b 353 -85 382 -75 368 -79 l 350 -83 l 401 -15 b 411 -17 403 -17 407 -17 b 649 96 499 -15 585 21 l 574 153 b 411 67 543 106 483 67 b 167 325 260 64 167 176 b 411 583 167 474 260 586 b 574 497 483 583 543 544 z "},"é":{"ha":772,"x_min":0,"x_max":0,"o":"m 706 300 l 706 342 b 394 667 706 519 592 665 b 67 325 210 667 67 521 b 403 -17 67 129 210 -17 b 682 121 510 -17 606 24 l 611 179 b 403 67 575 121 500 67 b 164 300 274 67 175 169 z m 167 375 b 394 583 167 482 275 583 b 606 375 526 583 606 499 z m 567 983 l 440 983 l 301 783 l 383 783 z "},"ê":{"ha":772,"x_min":0,"x_max":0,"o":"m 706 300 l 706 342 b 394 667 706 519 592 665 b 67 325 210 667 67 521 b 403 -17 67 129 210 -17 b 682 121 510 -17 606 24 l 611 179 b 403 67 575 121 500 67 b 164 300 274 67 175 169 z m 167 375 b 394 583 167 482 275 583 b 606 375 526 583 606 499 z m 442 983 l 331 983 l 179 783 l 271 783 l 386 933 l 501 783 l 593 783 z "},"ë":{"ha":772,"x_min":0,"x_max":0,"o":"m 706 300 l 706 342 b 394 667 706 519 592 665 b 67 325 210 667 67 521 b 403 -17 67 129 210 -17 b 682 121 510 -17 606 24 l 611 179 b 403 67 575 121 500 67 b 164 300 274 67 175 169 z m 167 375 b 394 583 167 482 275 583 b 606 375 526 583 606 499 z m 182 899 b 253 828 182 863 211 828 b 324 899 294 828 324 863 b 253 969 324 935 294 969 b 182 899 211 969 182 935 z m 449 899 b 519 828 449 863 478 828 b 590 899 561 828 590 863 b 519 969 590 935 561 969 b 449 899 478 969 449 935 z "},"è":{"ha":772,"x_min":0,"x_max":0,"o":"m 706 300 l 706 342 b 394 667 706 519 592 665 b 67 325 210 667 67 521 b 403 -17 67 129 210 -17 b 682 121 510 -17 606 24 l 611 179 b 403 67 575 121 500 67 b 164 300 274 67 175 169 z m 167 375 b 394 583 167 482 275 583 b 606 375 526 583 606 499 z m 389 783 l 471 783 l 332 983 l 206 983 z "},"í":{"ha":333,"x_min":0,"x_max":0,"o":"m 213 650 l 121 650 l 121 0 l 213 0 z m 347 983 l 221 983 l 82 783 l 164 783 z "},"î":{"ha":333,"x_min":0,"x_max":0,"o":"m 213 650 l 121 650 l 121 0 l 213 0 z m 222 983 l 111 983 l -40 783 l 51 783 l 167 933 l 282 783 l 374 783 z "},"ï":{"ha":333,"x_min":0,"x_max":0,"o":"m 213 650 l 121 650 l 121 0 l 213 0 z m -37 899 b 33 828 -37 863 -8 828 b 104 899 75 828 104 863 b 33 969 104 935 75 969 b -37 899 -8 969 -37 935 z m 229 899 b 300 828 229 863 258 828 b 371 899 342 828 371 863 b 300 969 371 935 342 969 b 229 899 258 969 229 935 z "},"ì":{"ha":333,"x_min":0,"x_max":0,"o":"m 213 650 l 121 650 l 121 0 l 213 0 z m 169 783 l 251 783 l 113 983 l -14 983 z "},"ñ":{"ha":772,"x_min":0,"x_max":0,"o":"m 93 650 b 100 507 96 603 100 542 l 100 0 l 192 0 l 192 333 b 389 583 192 571 369 583 b 565 360 525 583 565 504 l 565 0 l 657 0 l 657 413 b 413 667 657 574 578 667 b 194 546 326 667 235 617 l 192 546 b 188 650 192 581 192 615 z m 221 800 b 289 869 229 835 247 869 b 382 838 318 869 350 854 b 483 806 415 822 450 806 b 611 950 567 806 599 878 l 551 950 b 483 881 543 915 525 881 b 390 913 456 881 424 897 b 289 944 357 929 322 944 b 161 800 206 944 174 872 z "},"ó":{"ha":824,"x_min":0,"x_max":0,"o":"m 757 325 b 411 667 757 521 614 667 b 67 325 210 667 67 521 b 411 -17 67 129 210 -17 b 757 325 614 -17 757 129 z m 657 325 b 411 67 657 179 563 67 b 167 325 261 67 167 179 b 411 583 167 471 261 583 b 657 325 563 583 657 471 z m 593 983 l 467 983 l 328 783 l 410 783 z "},"ô":{"ha":824,"x_min":0,"x_max":0,"o":"m 757 325 b 411 667 757 521 614 667 b 67 325 210 667 67 521 b 411 -17 67 129 210 -17 b 757 325 614 -17 757 129 z m 657 325 b 411 67 657 179 563 67 b 167 325 261 67 167 179 b 411 583 167 471 261 583 b 657 325 563 583 657 471 z m 468 983 l 357 983 l 206 783 l 297 783 l 413 933 l 528 783 l 619 783 z "},"ö":{"ha":824,"x_min":0,"x_max":0,"o":"m 757 325 b 411 667 757 521 614 667 b 67 325 210 667 67 521 b 411 -17 67 129 210 -17 b 757 325 614 -17 757 129 z m 657 325 b 411 67 657 179 563 67 b 167 325 261 67 167 179 b 411 583 167 471 261 583 b 657 325 563 583 657 471 z m 208 899 b 279 828 208 863 238 828 b 350 899 321 828 350 863 b 279 969 350 935 321 969 b 208 899 238 969 208 935 z m 475 899 b 546 828 475 863 504 828 b 617 899 588 828 617 863 b 546 969 617 935 588 969 b 475 899 504 969 475 935 z "},"ò":{"ha":824,"x_min":0,"x_max":0,"o":"m 757 325 b 411 667 757 521 614 667 b 67 325 210 667 67 521 b 411 -17 67 129 210 -17 b 757 325 614 -17 757 129 z m 657 325 b 411 67 657 179 563 67 b 167 325 261 67 167 179 b 411 583 167 471 261 583 b 657 325 563 583 657 471 z m 415 783 l 497 783 l 358 983 l 232 983 z "},"õ":{"ha":824,"x_min":0,"x_max":0,"o":"m 757 325 b 411 667 757 521 614 667 b 67 325 210 667 67 521 b 411 -17 67 129 210 -17 b 757 325 614 -17 757 129 z m 657 325 b 411 67 657 179 563 67 b 167 325 261 67 167 179 b 411 583 167 471 261 583 b 657 325 563 583 657 471 z m 247 800 b 315 869 256 835 274 869 b 408 838 344 869 376 854 b 510 806 442 822 476 806 b 638 950 593 806 625 878 l 578 950 b 510 881 569 915 551 881 b 417 913 482 881 450 897 b 315 944 383 929 349 944 b 188 800 232 944 200 872 z "},"š":{"ha":592,"x_min":0,"x_max":0,"o":"m 526 550 b 310 667 485 635 400 667 b 69 471 188 667 69 606 b 236 300 69 347 192 311 l 325 279 b 449 175 393 263 449 240 b 296 67 449 100 371 67 b 125 164 219 67 163 106 l 46 110 b 296 -17 107 18 197 -17 b 549 183 422 -17 549 42 b 390 361 549 275 481 340 l 297 383 b 169 486 213 403 169 425 b 304 583 169 556 240 583 b 444 496 371 583 417 549 z m 503 983 l 411 983 l 296 833 l 181 983 l 89 983 l 240 783 l 351 783 z "},"ú":{"ha":772,"x_min":0,"x_max":0,"o":"m 664 0 b 657 143 661 47 657 108 l 657 650 l 565 650 l 565 317 b 368 67 565 79 388 67 b 192 290 232 67 192 146 l 192 650 l 100 650 l 100 238 b 344 -17 100 76 179 -17 b 563 104 431 -17 522 33 l 565 104 b 569 0 565 69 565 35 z m 567 983 l 440 983 l 301 783 l 383 783 z "},"û":{"ha":772,"x_min":0,"x_max":0,"o":"m 664 0 b 657 143 661 47 657 108 l 657 650 l 565 650 l 565 317 b 368 67 565 79 388 67 b 192 290 232 67 192 146 l 192 650 l 100 650 l 100 238 b 344 -17 100 76 179 -17 b 563 104 431 -17 522 33 l 565 104 b 569 0 565 69 565 35 z m 442 983 l 331 983 l 179 783 l 271 783 l 386 933 l 501 783 l 593 783 z "},"ü":{"ha":772,"x_min":0,"x_max":0,"o":"m 664 0 b 657 143 661 47 657 108 l 657 650 l 565 650 l 565 317 b 368 67 565 79 388 67 b 192 290 232 67 192 146 l 192 650 l 100 650 l 100 238 b 344 -17 100 76 179 -17 b 563 104 431 -17 522 33 l 565 104 b 569 0 565 69 565 35 z m 182 899 b 253 828 182 863 211 828 b 324 899 294 828 324 863 b 253 969 324 935 294 969 b 182 899 211 969 182 935 z m 449 899 b 519 828 449 863 478 828 b 590 899 561 828 590 863 b 519 969 590 935 561 969 b 449 899 478 969 449 935 z "},"ù":{"ha":772,"x_min":0,"x_max":0,"o":"m 664 0 b 657 143 661 47 657 108 l 657 650 l 565 650 l 565 317 b 368 67 565 79 388 67 b 192 290 232 67 192 146 l 192 650 l 100 650 l 100 238 b 344 -17 100 76 179 -17 b 563 104 431 -17 522 33 l 565 104 b 569 0 565 69 565 35 z m 389 783 l 471 783 l 332 983 l 206 983 z "},"ý":{"ha":669,"x_min":0,"x_max":0,"o":"m 138 650 l 22 650 l 289 -8 l 242 -133 b 117 -250 214 -207 181 -250 b 47 -235 92 -250 68 -246 l 38 -324 b 122 -333 65 -332 94 -333 b 326 -169 235 -333 288 -269 l 651 650 l 540 650 l 342 113 z m 515 983 l 389 983 l 250 783 l 332 783 z "},"ÿ":{"ha":669,"x_min":0,"x_max":0,"o":"m 138 650 l 22 650 l 289 -8 l 242 -133 b 117 -250 214 -207 181 -250 b 47 -235 92 -250 68 -246 l 38 -324 b 122 -333 65 -332 94 -333 b 326 -169 235 -333 288 -269 l 651 650 l 540 650 l 342 113 z m 131 899 b 201 828 131 863 160 828 b 272 899 243 828 272 863 b 201 969 272 935 243 969 b 131 899 160 969 131 935 z m 397 899 b 468 828 397 863 426 828 b 539 899 510 828 539 863 b 468 969 539 935 510 969 b 397 899 426 969 397 935 z "},"ž":{"ha":592,"x_min":0,"x_max":0,"o":"m 546 650 l 51 650 l 51 567 l 413 567 l 32 67 l 32 0 l 560 0 l 560 83 l 165 83 l 546 583 z m 503 983 l 411 983 l 296 833 l 181 983 l 89 983 l 240 783 l 351 783 z "},"∆":{"ha":897,"x_min":0,"x_max":0,"o":"m 44 0 l 854 0 l 854 67 l 504 1007 l 399 1007 l 44 67 z m 138 76 l 360 657 b 444 896 385 732 431 843 l 450 896 b 544 633 468 831 519 710 l 754 76 z "},"Ω":{"ha":1003,"x_min":0,"x_max":0,"o":"m 282 76 l 71 76 l 71 0 l 399 0 l 399 57 b 183 511 290 128 183 300 b 504 917 183 736 308 917 b 818 514 713 917 818 699 b 603 57 818 289 713 131 l 603 0 l 931 0 l 931 76 l 718 76 l 718 81 b 911 531 814 161 911 322 b 506 994 911 779 751 994 b 90 524 272 994 90 804 b 282 81 90 325 181 171 z "},"μ":{"ha":772,"x_min":0,"x_max":0,"o":"m 100 -317 l 192 -317 l 192 24 b 344 -17 229 -3 281 -17 b 563 106 431 -17 522 40 l 565 106 l 565 0 l 664 0 b 657 143 661 47 657 96 l 657 650 l 565 650 l 565 317 b 368 67 565 157 479 67 b 192 290 235 67 192 131 l 192 650 l 100 650 z "},"π":{"ha":786,"x_min":0,"x_max":0,"o":"m 749 647 l 758 728 l 210 728 b 14 692 104 728 49 713 l 29 629 b 188 647 58 640 97 647 b 85 0 181 454 139 150 l 175 0 b 279 647 228 132 271 461 l 542 647 l 542 196 b 565 0 542 79 553 22 l 654 0 b 633 206 644 36 633 88 l 633 647 z "},"€":{"ha":772,"x_min":0,"x_max":0,"o":"m 690 858 b 504 913 647 890 582 913 b 246 660 365 913 279 828 l 639 660 l 615 582 l 233 582 b 229 476 231 549 229 514 b 232 400 229 450 231 426 l 565 400 l 540 324 l 240 324 b 476 67 268 163 343 67 b 650 156 550 67 618 106 l 715 108 b 464 -17 664 24 564 -17 b 136 324 265 -17 165 124 l 32 324 l 60 400 l 128 400 b 125 481 126 426 125 453 b 129 582 125 515 126 550 l 33 582 l 61 660 l 140 660 b 506 1000 186 893 326 1000 b 719 944 583 1000 674 974 z "},"ℓ":{"ha":668,"x_min":0,"x_max":0,"o":"m 589 201 b 397 64 554 138 488 64 b 240 293 315 64 242 128 l 240 338 b 529 857 414 508 529 679 b 361 1081 529 982 475 1081 b 153 747 261 1081 153 1003 l 153 358 b 42 261 119 325 82 296 l 72 207 b 153 274 99 229 128 253 l 153 254 b 381 -10 158 114 222 -10 b 635 163 489 -10 575 50 z m 240 756 b 360 1010 240 946 306 1010 b 464 854 435 1010 464 947 b 240 432 464 710 365 568 z "},"℮":{"ha":1226,"x_min":0,"x_max":0,"o":"m 1176 478 l 1176 492 b 611 1000 1176 772 924 1000 b 47 492 300 1000 47 772 b 611 -15 47 211 300 -15 b 1058 181 793 -15 957 63 l 976 181 b 613 13 888 79 758 13 b 267 163 478 13 356 71 b 256 194 260 172 256 183 l 256 471 b 263 478 256 476 258 478 z m 969 514 b 964 504 969 511 968 504 l 263 504 b 256 514 258 504 256 511 l 256 786 b 268 821 256 799 260 811 b 613 969 357 911 479 969 b 956 825 747 969 867 913 b 969 792 965 815 969 804 z "},"∂":{"ha":754,"x_min":0,"x_max":0,"o":"m 142 953 b 326 1021 181 985 240 1021 b 592 594 469 1021 592 853 b 590 531 592 576 592 549 l 589 531 b 356 668 567 574 486 668 b 60 311 201 668 60 531 b 324 -11 60 150 146 -11 b 682 568 561 -11 682 242 b 336 1099 682 931 513 1099 b 108 1021 225 1099 153 1057 z m 332 67 b 153 313 222 67 153 169 b 369 593 153 467 251 593 b 578 435 481 593 557 499 b 333 67 560 240 469 67 z "},"∏":{"ha":967,"x_min":0,"x_max":0,"o":"m 929 894 l 929 979 l 36 979 l 36 894 l 190 894 l 190 -135 l 281 -135 l 281 894 l 685 894 l 685 -135 l 775 -135 l 775 894 z "},"∑":{"ha":768,"x_min":0,"x_max":0,"o":"m 736 -135 l 736 -47 l 151 -47 l 151 -43 l 518 433 l 178 894 l 178 899 l 715 899 l 715 979 l 49 979 l 49 914 l 413 419 l 32 -72 l 32 -135 z "},"∙":{"ha":386,"x_min":0,"x_max":0,"o":"m 268 436 b 193 511 268 475 238 511 b 118 436 149 511 118 475 b 193 361 118 397 149 361 b 268 436 238 361 268 397 z "},"√":{"ha":792,"x_min":0,"x_max":0,"o":"m 789 1163 l 719 1163 l 456 0 b 439 -99 450 -33 442 -72 l 436 -99 b 413 0 431 -72 421 -32 l 231 535 l 47 464 l 68 406 l 171 444 l 397 -212 l 481 -212 z "},"∞":{"ha":1083,"x_min":0,"x_max":0,"o":"m 1011 408 b 810 619 1011 532 931 619 b 547 451 693 619 622 533 b 288 619 474 538 393 619 b 71 401 163 619 71 526 b 278 188 71 282 165 188 b 543 356 392 188 469 272 b 800 188 642 246 710 188 b 1011 407 910 188 1011 274 z m 286 249 b 136 400 196 249 136 317 b 278 561 136 485 188 561 b 508 400 379 561 446 476 b 289 249 450 339 379 249 z m 803 561 b 946 403 885 561 946 503 b 804 249 946 328 894 249 b 579 406 729 249 674 304 b 801 561 629 456 706 561 z "},"∫":{"ha":489,"x_min":0,"x_max":0,"o":"m 467 1175 b 393 1194 453 1183 421 1194 b 267 1142 347 1194 301 1178 b 194 847 214 1086 194 999 b 213 129 194 629 213 356 b 164 -117 213 -17 192 -81 b 99 -149 147 -137 122 -149 b 35 -132 71 -149 47 -137 l 17 -200 b 106 -222 33 -210 71 -222 b 236 -156 157 -222 207 -200 b 299 128 269 -108 299 -26 b 279 839 299 353 279 621 b 328 1092 279 975 292 1049 b 399 1125 347 1115 376 1125 b 450 1110 417 1125 439 1118 z "},"≈":{"ha":786,"x_min":0,"x_max":0,"o":"m 681 599 b 546 493 640 529 604 493 b 413 542 494 493 461 515 b 256 600 374 563 324 600 b 65 468 175 600 107 550 l 107 436 b 246 540 142 490 181 540 b 378 493 293 540 335 517 b 542 433 446 456 485 433 b 719 564 629 433 683 492 z m 681 364 b 547 260 640 296 604 260 b 413 310 494 260 460 283 b 256 367 374 329 324 367 b 65 235 175 367 107 317 l 107 201 b 246 307 142 257 179 307 b 378 260 293 307 333 283 b 542 200 446 222 485 200 b 719 331 629 200 683 258 z "},"≠":{"ha":786,"x_min":0,"x_max":0,"o":"m 556 703 l 506 726 l 431 564 l 72 564 l 72 501 l 406 501 l 311 294 l 72 294 l 72 233 l 285 233 l 218 92 l 268 68 l 344 233 l 714 233 l 714 294 l 369 294 l 465 501 l 714 501 l 714 564 l 492 564 z "},"≤":{"ha":786,"x_min":0,"x_max":0,"o":"m 711 135 l 711 210 l 149 482 l 149 485 l 710 756 l 710 831 l 81 515 l 81 450 z m 714 13 l 714 76 l 72 76 l 72 13 z "},"≥":{"ha":786,"x_min":0,"x_max":0,"o":"m 81 831 l 81 756 l 643 483 l 643 481 l 81 210 l 81 135 l 711 450 l 711 515 z m 714 13 l 714 76 l 72 76 l 72 13 z "},"◊":{"ha":793,"x_min":0,"x_max":0,"o":"m 714 489 l 435 1042 l 360 1042 l 78 489 l 357 -62 l 432 -62 z m 628 486 l 424 85 b 399 15 414 67 403 33 l 393 15 b 369 86 390 32 382 58 l 163 492 l 365 889 b 393 961 378 915 386 940 l 396 961 b 422 889 401 943 413 913 z "}," ":{"ha":386,"x_min":0,"x_max":0,"o":""},"­":{"ha":463,"x_min":0,"x_max":0,"o":"m 410 379 l 53 379 l 53 288 l 410 288 z "},"ˉ":{"ha":333,"x_min":0,"x_max":0,"o":"m 354 908 l -21 908 l -21 833 l 354 833 z "},"Ω":{"ha":1003,"x_min":0,"x_max":0,"o":"m 282 76 l 71 76 l 71 0 l 399 0 l 399 57 b 183 511 290 128 183 300 b 504 917 183 736 308 917 b 818 514 713 917 818 699 b 603 57 818 289 713 131 l 603 0 l 931 0 l 931 76 l 718 76 l 718 81 b 911 531 814 161 911 322 b 506 994 911 779 751 994 b 90 524 272 994 90 804 b 282 81 90 325 181 171 z "},"∕":{"ha":233,"x_min":0,"x_max":0,"o":"m -160 -44 l 465 985 l 394 1028 l -232 0 z "}}}
